<svg width="120" height="121" viewBox="0 0 120 121" fill="none" xmlns="http://www.w3.org/2000/svg">
<path d="M2.5 6.67586C2.5 2.98889 5.48477 0 9.16667 0H50.8333C54.5152 0 57.5 2.98889 57.5 6.67586V49.2345C57.5 52.9215 54.5152 55.9103 50.8333 55.9103H9.16667C5.48477 55.9103 2.5 52.9215 2.5 49.2345V6.67586Z" fill="#0C0C0C"/>
<path d="M62.5 6.67586C62.5 2.98889 65.4848 0 69.1667 0H110.833C114.515 0 117.5 2.98889 117.5 6.67586V49.2345C117.5 52.9215 114.515 55.9103 110.833 55.9103H69.1667C65.4848 55.9103 62.5 52.9215 62.5 49.2345V6.67586Z" fill="#008FED"/>
<path fill-rule="evenodd" clip-rule="evenodd" d="M72.6221 68.9793C77.6128 64.9792 83.9437 62.5862 90.8333 62.5862C106.942 62.5862 120 75.6626 120 91.7931C120 107.924 106.942 121 90.8333 121C74.725 121 61.6667 107.924 61.6667 91.7931C61.6667 86.1832 63.2468 80.9432 65.9847 76.4937L60 70.5008L54.0145 76.4937C56.7525 80.9433 58.3333 86.1831 58.3333 91.7931C58.3333 107.924 45.275 121 29.1667 121C13.0584 121 0 107.924 0 91.7931C0 75.6626 13.0584 62.5862 29.1667 62.5862C36.0561 62.5862 42.3865 64.9795 47.3771 68.9793L59.2924 57.0483C59.683 56.6572 60.3169 56.6572 60.7076 57.0484L72.6221 68.9793ZM29.1667 74.269C19.5017 74.269 11.6667 82.1148 11.6667 91.7931C11.6667 101.471 19.5017 109.317 29.1667 109.317C38.8316 109.317 46.6667 101.471 46.6667 91.7931C46.6667 89.4434 46.2031 87.2024 45.3654 85.1547L40.4927 90.0348C40.1021 90.426 39.4682 90.426 39.0775 90.0349L33.4204 84.37C33.0306 83.9796 33.0306 83.3472 33.4204 82.9568L39.043 77.3257C36.2319 75.3978 32.8311 74.269 29.1667 74.269ZM90.8333 74.269C87.1686 74.269 83.7674 75.3975 80.9562 77.3257L86.5795 82.9568C86.9694 83.3472 86.9694 83.9796 86.5795 84.37L80.9224 90.0349C80.5318 90.4261 79.8979 90.4261 79.5072 90.0349L74.6338 85.1547C73.7962 87.2023 73.3333 89.4435 73.3333 91.7931C73.3333 101.471 81.1684 109.317 90.8333 109.317C100.498 109.317 108.333 101.471 108.333 91.7931C108.333 82.1148 100.498 74.269 90.8333 74.269Z" fill="#0C0C0C"/>
</svg>
